# xmcd CD database file
#
# Track frame offsets:
#	150
#	14085
#	29322
#	41092
#	54437
#	71090
#	84807
#	104285
#	114075
#	130442
#	144295
#	161027
#	175832
#	194245
#	210157
#	228030
#	245217
#	256572
#
# Disc length: 3625 seconds
#
# Revision: 0
# Processed by: cddbd v1.5.1PL0 Copyright (c) Steve Scherf et al.
# Submitted via: CDex 1.51
#
DISCID=f10e2712
DTITLE=Rita Reys - The Rita Reys Story - Songs of a lifetime - CD1 - 1953-1961
DYEAR=2004
DGENRE=Jazz
TTITLE0=Lullaby In Rhythm 
TTITLE1=I've Got The World On A String
TTITLE2=Gone With The Wind 
TTITLE3=Thou Swell 
TTITLE4=Spring Will Be A Little Late This Year 
TTITLE5=My Funny Valentine
TTITLE6=Star Eyes 
TTITLE7=Lullaby Of The Leaves 
TTITLE8=You'd Be So Nice To Come Home To 
TTITLE9=It's Mine After All 
TTITLE10=Poor Butterfly 
TTITLE11=They Didn't Believe Me 
TTITLE12=Prelude To A Kiss
TTITLE13=Ill Wind 
TTITLE14=Spring Can Really Hang You Up The Most 
TTITLE15=Autumn Leaves
TTITLE16=There'll Never Be Another You 
TTITLE17=Zon In Scheveningen 
EXTD=YEAR: 2004
EXTT0=
EXTT1=
EXTT2=
EXTT3=
EXTT4=
EXTT5=
EXTT6=
EXTT7=
EXTT8=
EXTT9=
EXTT10=
EXTT11=
EXTT12=
EXTT13=
EXTT14=
EXTT15=
EXTT16=
EXTT17=
PLAYORDER=
